<svg xmlns="http://www.w3.org/2000/svg" width="42" height="40.03" viewBox="0 0 42 40.03">
  <defs>
    <style>
      .cls-1 {
        fill: #fafafa;
        <!-- fill-rule: evenodd; -->
      }
    </style>
  </defs>
  <path id="line.svg" class="cls-1" d="M604,1273.03c0-9.4-9.421-17.04-21-17.04s-21,7.64-21,17.04c0,8.43,7.472,15.48,17.564,16.82a2.583,2.583,0,0,1,1.85,1.03,4.308,4.308,0,0,1,.068,1.9s-0.246,1.48-.3,1.8c-0.091.53-.422,2.08,1.819,1.13s12.095-7.12,16.5-12.19h0C602.542,1280.18,604,1276.79,604,1273.03Zm-28.411,5.02a0.413,0.413,0,0,1-.408.41h-5.886a0.412,0.412,0,0,1-.282-0.12h-0.006c0-.01,0-0.01-0.006-0.01a0.392,0.392,0,0,1-.114-0.28h0v-9.15a0.407,0.407,0,0,1,.409-0.41h1.473a0.407,0.407,0,0,1,.409.41v7.27h4a0.4,0.4,0,0,1,.408.4v1.48Zm3.552,0a0.414,0.414,0,0,1-.41.41h-1.473a0.414,0.414,0,0,1-.409-0.41v-9.15a0.407,0.407,0,0,1,.409-0.41h1.473a0.408,0.408,0,0,1,.41.41v9.15Zm10.139,0a0.414,0.414,0,0,1-.409.41H587.4a0.362,0.362,0,0,1-.105-0.02h-0.006a0.034,0.034,0,0,1-.028-0.01h-0.012c-0.007,0-.013-0.01-0.02-0.01s-0.013-.01-0.019-0.01a0.011,0.011,0,0,1-.012-0.01c-0.009,0-.017-0.01-0.025-0.01h0a0.538,0.538,0,0,1-.1-0.11l-4.2-5.67v5.44a0.414,0.414,0,0,1-.409.41h-1.473a0.414,0.414,0,0,1-.409-0.41v-9.15a0.407,0.407,0,0,1,.409-0.41h1.53a0.017,0.017,0,0,1,.017.01h0.038a0.026,0.026,0,0,0,.024.01,0.012,0.012,0,0,1,.013.01,0.026,0.026,0,0,1,.024.01h0.013c0.007,0.01.014,0.01,0.022,0.02h0.012c0.007,0.01.014,0.01,0.021,0.02s0.007,0,.011.01,0.015,0.01.022,0.01,0,0.01.007,0.01l0.025,0.03h0a0.374,0.374,0,0,1,.032.04l4.194,5.66v-5.43a0.407,0.407,0,0,1,.409-0.41h1.473a0.407,0.407,0,0,1,.409.41v9.15Zm8.134-7.68a0.406,0.406,0,0,1-.408.41h-4v1.55h4a0.406,0.406,0,0,1,.408.41v1.47a0.406,0.406,0,0,1-.408.41h-4v1.55h4a0.4,0.4,0,0,1,.408.4v1.48a0.413,0.413,0,0,1-.408.41H591.12a0.413,0.413,0,0,1-.282-0.12h-0.006s0-.01-0.006-0.01a0.4,0.4,0,0,1-.114-0.28h0v-9.15h0a0.4,0.4,0,0,1,.113-0.28c0-.01,0-0.01.007-0.01s0,0,0-.01a0.407,0.407,0,0,1,.283-0.11h5.886a0.406,0.406,0,0,1,.408.41v1.47Z" transform="translate(-562 -1256)"/>
</svg>
