<svg xmlns="http://www.w3.org/2000/svg" width="100" height="16" viewBox="0 0 100 16" class="SVGHover">
  <defs>
    <style>
<!--       .cls-1 {
        fill-rule: evenodd;
      } -->
    </style>
  </defs>
  <path id="m_logo.svg" class="cls-1" d="M948.819,721.12a3.752,3.752,0,0,1-2.849.949h-0.3l-0.055-.014-0.413,2.807h-1.294l1.074-7.4a3.856,3.856,0,0,0-.688.826,0.049,0.049,0,0,0-.028.027l-0.013.028a0.14,0.14,0,0,1-.152.082,0.149,0.149,0,0,1-.151-0.179,3.809,3.809,0,0,1,1.156-1.912l0.33-2.257h1.308l-0.207,1.5a3.672,3.672,0,0,1,.936-0.151A2.717,2.717,0,0,1,950,718.4,3.723,3.723,0,0,1,948.819,721.12Zm-1.775-4.623a1.422,1.422,0,0,0-.661.138l-0.606,4.278a1.547,1.547,0,0,0,.262,0,2.431,2.431,0,0,0,2.6-2.531A1.713,1.713,0,0,0,947.044,716.5Zm-3.841-1.624a0.81,0.81,0,0,1-.8-0.811,0.8,0.8,0,0,1,.812-0.8,0.81,0.81,0,0,1,.812.8A0.825,0.825,0,0,1,943.2,714.873Zm-0.467,7.677a3.244,3.244,0,0,1-.5,1.68,1.967,1.967,0,0,1-1.611.77,1.989,1.989,0,0,1-.825-0.166l0.178-1.2a1.782,1.782,0,0,0,.551.082c0.785,0,.84-0.647.923-1.279l0.839-6.8H943.6Zm-5.109-1.5a1.837,1.837,0,1,1,1.838-1.836A1.793,1.793,0,0,1,937.627,721.048Zm-11.654,3.668c-2.083,0-7.585-.976-7.573-5.389v-0.021c0-4.549,4.694-5.494,7.586-5.479,2.724,0.015,7.6,1.115,7.627,5.541C933.642,724.025,928.054,724.716,925.973,724.716Zm0.013-8.73c-1.592,0-1.661,1.529-1.661,3.32v0.021c0,0.978-.1,3.217,1.661,3.217,1.622,0,1.705-1.927,1.705-3.285C927.691,717.875,927.579,715.986,925.986,715.986Zm-11.259,2.988a2.406,2.406,0,0,1,1.5.84,2.453,2.453,0,0,1,.53,1.591c0,0.19-.055.827,0.436,0.827a0.3,0.3,0,0,0,.348-0.284v-0.272l1.1-.015s0.015,0.707.015,0.883-0.028,2.05-3.325,2.05-3.371-1.829-3.367-2.05a2.546,2.546,0,0,0-.51-2.049,1.057,1.057,0,0,0-.913-0.346l-1.8-.007-0.022,1.806c0,0.3.21,0.6,1.2,0.6v1.874H902.8v-1.874c0.1,0,1.161.013,1.161-.6v-5.257a1.111,1.111,0,0,0-1.161-.705v-2.023h11.05c1.552,0.108,3.87.8,3.87,2.582C917.716,718.728,914.727,718.974,914.727,718.974Zm-3.478-2.988H908.72l0.022,2.226h2.515A1.113,1.113,0,1,0,911.249,715.986Zm-16.525,6.558h0.753a0.5,0.5,0,0,0,.488-0.6,1.256,1.256,0,0,0-.235-0.516h-3.179a1.48,1.48,0,0,0-.21.516,0.487,0.487,0,0,0,.525.6h0.768v1.874h-6.288v-1.874a1.407,1.407,0,0,0,1.37-.677l3.632-7.9h4.721s3.6,7.632,3.8,8.013a1.436,1.436,0,0,0,1.452.568v1.874h-7.6v-1.874Zm-0.587-4.759-0.8,2.092h1.6Zm-7.627,3.4v3.232h-1.873a0.564,0.564,0,0,0-.447-0.489c-0.587-.133-1.9.761-4.386,0.761s-7.069-1.439-7.069-5.378c0-2.605,2.459-5.457,7.153-5.457a10.225,10.225,0,0,1,3.687.678c0.923,0.246.951-.162,1.034-0.487h1.978v4.106l-3.795-.006a2.013,2.013,0,0,0-2.123-2.064c-1.787,0-2.3,1.683-2.29,3.177,0.013,1.452.293,3.027,2.29,3.041,1.4,0.009,1.342-.68,1.342-0.949a0.958,0.958,0,0,0-1.117-.815v-1.659h6.718s-0.013,1.629.015,1.631A1.066,1.066,0,0,0,886.51,721.186Zm-14.832-9.09-0.2.006a5.058,5.058,0,0,0-.246.745c-0.105.462,0.136,0.494,0.265,0.5a1.777,1.777,0,0,0,1.3-1.243l0.086,0.047a1.861,1.861,0,0,1-1.464,1.309,0.833,0.833,0,0,1-.83-1l0-.039c-0.064.114-.116,0.193-0.169,0.274a2.746,2.746,0,0,1-.48.563,0.58,0.58,0,0,1-.535.083,0.723,0.723,0,0,1-.351-0.705,4.09,4.09,0,0,1,.281-0.873c0.132-.319.295-0.712,0.319-0.774a0.532,0.532,0,0,0,.072-0.27,1.172,1.172,0,0,0-.638.453,2.419,2.419,0,0,0-.41.567c-0.257.569-.681,1.62-0.681,1.62h-0.82l0.957-2.3a0.426,0.426,0,0,0,.069-0.326,1.5,1.5,0,0,0-.985.955c-0.261.721-.689,1.671-0.689,1.671h-0.822l0.957-2.3a0.439,0.439,0,0,0,.079-0.316,1.366,1.366,0,0,0-.537.617,17.6,17.6,0,0,1-1.132,1.8,0.553,0.553,0,0,1-.529.213,0.383,0.383,0,0,1-.317-0.252,2.3,2.3,0,0,1-.141-0.545,2.5,2.5,0,0,1-.693.712,0.691,0.691,0,0,1-.76-0.055,1.132,1.132,0,0,1-.231-0.5,0.816,0.816,0,0,1,.006-0.4,7.36,7.36,0,0,1-.59.83,0.561,0.561,0,0,1-.529.213,0.376,0.376,0,0,1-.317-0.252,1.878,1.878,0,0,1-.1-0.554,2.358,2.358,0,0,1-.7.717,0.506,0.506,0,0,1-.647-0.051,1.1,1.1,0,0,1-.228-0.5,1.149,1.149,0,0,1-.056-0.332,7.489,7.489,0,0,1-.522.758,0.561,0.561,0,0,1-.529.213,0.379,0.379,0,0,1-.317-0.252,2.3,2.3,0,0,1-.141-0.545,2.5,2.5,0,0,1-.693.712,0.691,0.691,0,0,1-.76-0.055,1.121,1.121,0,0,1-.231-0.5,0.985,0.985,0,0,1-.022-0.426c-0.1.178-.167,0.28-0.233,0.387a2.746,2.746,0,0,1-.48.563,0.584,0.584,0,0,1-.537.083,0.725,0.725,0,0,1-.349-0.705,3.981,3.981,0,0,1,.281-0.873c0.13-.319.295-0.712,0.317-0.774a0.494,0.494,0,0,0,.072-0.27,1.17,1.17,0,0,0-.637.453,2.327,2.327,0,0,0-.409.567c-0.257.569-.681,1.62-0.681,1.62h-0.82l0.957-2.3a0.431,0.431,0,0,0,.067-0.326,1.5,1.5,0,0,0-.985.955c-0.261.721-.689,1.671-0.689,1.671h-0.822l0.974-2.337a0.792,0.792,0,0,0,.083-0.279,1.16,1.16,0,0,0-.668.558c-0.121.177-.239,0.387-0.353,0.595l-0.128-.052a3.652,3.652,0,0,1,.867-1.164,0.5,0.5,0,0,1,.858.5,2.649,2.649,0,0,1,.6-0.522,0.872,0.872,0,0,1,.559-0.182,0.733,0.733,0,0,1,.3.811,4.532,4.532,0,0,1,.4-0.43,1.186,1.186,0,0,1,.754-0.376,0.7,0.7,0,0,1,.308.729,3.132,3.132,0,0,1-.278.948c-0.114.282-.317,0.66-0.379,0.877a0.231,0.231,0,0,0-.008.208,0.28,0.28,0,0,0,.273-0.071,2.068,2.068,0,0,0,.45-0.516,4.993,4.993,0,0,0,.445-0.806l0,0a2.554,2.554,0,0,1,.473-0.721,1.743,1.743,0,0,1,1.408-.693,0.6,0.6,0,0,1,.384.361l0.128-.315,0.807,0s-0.522,1.294-.766,1.87c-0.152.357-.221,0.5-0.261,0.605s-0.123.3,0,.3a0.505,0.505,0,0,0,.334-0.19,13.366,13.366,0,0,0,.774-1.281,2.687,2.687,0,0,1,.4-0.659,1.5,1.5,0,0,1,1.3-.693,0.591,0.591,0,0,1,.383.361l0.737-1.8,0.806,0s-1.127,2.783-1.372,3.359c-0.151.357-.22,0.5-0.261,0.605s-0.122.3,0,.3a0.491,0.491,0,0,0,.332-0.19c0.056-.062.5-0.732,0.846-1.337a3.335,3.335,0,0,1,.421-0.6,1.661,1.661,0,0,1,1.366-.693,0.594,0.594,0,0,1,.382.361l0.129-.315,0.807,0s-0.52,1.294-.766,1.87c-0.152.357-.218,0.5-0.261,0.605s-0.122.3,0,.3a0.492,0.492,0,0,0,.308-0.19c0.334-.286,1.134-1.907,1.545-2.362a0.507,0.507,0,0,1,.5-0.233,0.624,0.624,0,0,1,.321.7,2.693,2.693,0,0,1,.595-0.522,0.868,0.868,0,0,1,.559-0.182,0.732,0.732,0,0,1,.3.811,4.943,4.943,0,0,1,.4-0.43,1.191,1.191,0,0,1,.754-0.376,0.7,0.7,0,0,1,.31.729,3.24,3.24,0,0,1-.278.948c-0.115.282-.317,0.66-0.379,0.877a0.241,0.241,0,0,0-.009.208,0.282,0.282,0,0,0,.274-0.071,2.027,2.027,0,0,0,.448-0.516,4.2,4.2,0,0,0,.434-0.806l0,0a2.255,2.255,0,0,1,1.895-1.4,0.494,0.494,0,0,1,.417.637A1.463,1.463,0,0,1,871.678,712.1Zm-13.667-1.543a1.544,1.544,0,0,0-.936,1.055c-0.278.546-.665,1.43-0.464,1.609s0.64-.269.7-0.333a3.9,3.9,0,0,0,.441-0.585c0.088-.183.088-0.189,0.24-0.539,0.079-.175.222-0.629,0.222-0.629C858.319,710.751,858.21,710.561,858.011,710.553Zm3.1,0a1.534,1.534,0,0,0-.842,1.055c-0.306.739-.653,1.468-0.434,1.626a0.777,0.777,0,0,0,.6-0.342,3.791,3.791,0,0,0,.426-0.607s0.073-.174.225-0.525a4.518,4.518,0,0,0,.24-0.629C861.426,710.751,861.3,710.541,861.106,710.553Zm3.259,0a1.528,1.528,0,0,0-.935,1.055c-0.278.545-.666,1.429-0.465,1.608s0.64-.269.7-0.334a3.843,3.843,0,0,0,.441-0.584c0.088-.184.088-0.193,0.24-0.538,0.079-.176.223-0.63,0.223-0.63C864.673,710.744,864.564,710.556,864.365,710.55Zm8.263,0c-0.518,0-1.1,1.393-1.1,1.393a1.331,1.331,0,0,0,.7-0.157,1.166,1.166,0,0,0,.623-0.795C872.87,710.887,872.847,710.552,872.628,710.552Zm-20.372,6.126a1.18,1.18,0,0,0-1.2-.733v-1.982h14.164v4.4h-3.771s-0.056-2.253-1.426-2.281-2.961,0-2.961,0v2.253a1.073,1.073,0,0,0,1.369-.978h1.984v1.992h5.441a0.455,0.455,0,0,1,.5.263c0.043,0.217.167,0.543-1.173,0.99a22.413,22.413,0,0,1-3.548.706l-0.447-.772,0.25,0.772s-2.667.206-3.157,0.19a0.811,0.811,0,0,1-.837-0.447,2.264,2.264,0,0,1-.372-1.14h0.53a2.553,2.553,0,0,0,.33.882,0.671,0.671,0,0,0,.642.218c0.127,0,2.153-.137,2.153-0.137l-0.2-.856h0.839l0.46,0.734s1.607-.15,2.486-0.353a1.991,1.991,0,0,0,1.146-.381c0.055-.077-0.056-0.107-0.155-0.107h-4.888v0.65h-2.3s0.056-.787-1.048-0.732v1.86a1.045,1.045,0,0,0,1.23.855v1.874h-7.236v-1.874a1.137,1.137,0,0,0,1.2-.964v-1.669H850.5l-0.5-.562h2.256v-2.671Zm14.752,5.189v-5.31a1.263,1.263,0,0,0-1.2-.571v-2.023h7.125V716a1.161,1.161,0,0,0-1.216.556v5.322s0.071,0.584,1.216.665v1.874h-7.125v-1.874S867.008,722.544,867.008,721.867Z" transform="translate(-850 -709)"/>
</svg>
