<svg xmlns="http://www.w3.org/2000/svg" width="178" height="28" viewBox="0 0 178 28" class="SVGHover">
  <defs>
    <style>
      .cls-1 {
        fill: #fff;
      }
    </style>
  </defs>
  <path id="logo.svg" class="cls-1" d="M214.9,57.21a6.752,6.752,0,0,1-5.071,1.661h-0.539l-0.1-.024-0.735,4.912h-2.3l1.911-12.953a6.858,6.858,0,0,0-1.226,1.445,0.09,0.09,0,0,0-.049.047l-0.023.049a0.249,0.249,0,0,1-.27.144,0.264,0.264,0,0,1-.27-0.314c0-.769.906-2.166,2.058-3.346l0.588-3.948H211.2l-0.367,2.624a6.682,6.682,0,0,1,1.666-.265c2.6,0,4.509,2.263,4.509,5.2A6.464,6.464,0,0,1,214.9,57.21Zm-3.16-8.091a2.567,2.567,0,0,0-1.177.241l-1.077,7.488a2.8,2.8,0,0,0,.465,0,4.293,4.293,0,0,0,4.63-4.43A3.016,3.016,0,0,0,211.738,49.12ZM204.9,46.279a1.409,1.409,0,1,1,1.47-1.421A1.457,1.457,0,0,1,204.9,46.279Zm-0.833,13.435a5.593,5.593,0,0,1-.882,2.939A3.521,3.521,0,0,1,200.32,64a3.6,3.6,0,0,1-1.469-.289l0.318-2.094a3.2,3.2,0,0,0,.979.144c1.4,0,1.5-1.132,1.643-2.239l1.494-11.894h2.328Zm-9.093-2.629a3.216,3.216,0,1,1,3.272-3.215A3.164,3.164,0,0,1,194.976,57.085ZM174.231,63.5c-3.707,0-13.5-1.707-13.479-9.43V54.035c0-7.96,8.355-9.614,13.5-9.588,4.849,0.027,13.526,1.951,13.576,9.7C187.883,62.293,177.937,63.5,174.231,63.5Zm0.024-15.277c-2.834,0-2.957,2.676-2.957,5.81v0.037c0,1.711-.176,5.63,2.957,5.63,2.887,0,3.036-3.372,3.036-5.748C177.291,51.531,177.091,48.225,174.255,48.225Zm-20.04,5.229a4.3,4.3,0,0,1,2.659,1.471,4.232,4.232,0,0,1,.945,2.783c0,0.333-.1,1.449.775,1.449a0.54,0.54,0,0,0,.62-0.5V58.183l1.962-.027s0.026,1.238.026,1.545-0.049,3.588-5.919,3.588-6-3.2-5.993-3.588c0.027-1.426.1-2.489-.907-3.585a1.9,1.9,0,0,0-1.626-.606l-3.2-.013-0.039,3.161c0,0.519.374,1.043,2.138,1.043v3.28H132.978V59.7c0.175,0,2.065.024,2.065-1.043v-9.2c0-.831-1.341-1.235-2.065-1.235V44.686h19.667c2.763,0.189,6.889,1.4,6.889,4.517C159.534,53.024,154.215,53.454,154.215,53.454Zm-6.193-5.229h-4.5l0.039,3.9h4.476a2.421,2.421,0,0,0,2.026-2.066C150.063,48.843,148.345,48.225,148.022,48.225ZM118.609,59.7h1.34a0.876,0.876,0,0,0,.868-1.043,2.18,2.18,0,0,0-.419-0.9h-5.657a2.566,2.566,0,0,0-.374.9A0.856,0.856,0,0,0,115.3,59.7h1.368v3.28H105.476V59.7a2.514,2.514,0,0,0,2.438-1.186l6.465-13.83h8.4s6.415,13.355,6.765,14.021,1.1,0.995,2.584.995v3.28H118.609V59.7Zm-1.045-8.328-1.418,3.661h2.846Zm-13.577,5.952v5.657h-3.334a0.99,0.99,0,0,0-.8-0.857c-1.044-.232-3.383,1.333-7.806,1.333s-12.583-2.519-12.583-9.412c0-4.559,4.377-9.55,12.732-9.55,3.482,0,4.255.589,6.563,1.187,1.642,0.431,1.691-.283,1.84-0.853h3.52v7.186l-6.754-.01a3.55,3.55,0,0,0-3.779-3.613c-3.181,0-4.1,2.946-4.076,5.56,0.023,2.54.522,5.3,4.076,5.321,2.488,0.016,2.389-1.19,2.389-1.661s-0.45-1.426-1.988-1.426v-2.9H105.95s-0.024,2.85.025,2.854C105.4,56.09,103.987,56.494,103.987,57.326Zm-26.4-15.907-0.362.011a8.715,8.715,0,0,0-.438,1.3C76.6,43.541,77.03,43.6,77.259,43.6c0.842,0.022,1.795-.946,2.32-2.175l0.153,0.082C79.2,42.632,78.368,43.8,77.126,43.8a1.469,1.469,0,0,1-1.478-1.745l0.008-.068c-0.115.2-.206,0.337-0.3,0.479a4.8,4.8,0,0,1-.853.984,1.045,1.045,0,0,1-.953.146,1.26,1.26,0,0,1-.625-1.235,7.042,7.042,0,0,1,.5-1.528c0.236-.557.526-1.245,0.568-1.355a0.923,0.923,0,0,0,.129-0.472,2.081,2.081,0,0,0-1.135.793,4.235,4.235,0,0,0-.731.992c-0.457,1-1.212,2.835-1.212,2.835H69.583l1.7-4.025a0.73,0.73,0,0,0,.122-0.569,2.648,2.648,0,0,0-1.752,1.67c-0.465,1.262-1.227,2.924-1.227,2.924H66.966l1.7-4.025a0.763,0.763,0,0,0,.141-0.553,2.414,2.414,0,0,0-.956,1.08,30.589,30.589,0,0,1-2.016,3.15,0.993,0.993,0,0,1-.941.373,0.677,0.677,0,0,1-.564-0.441,3.988,3.988,0,0,1-.252-0.954A4.421,4.421,0,0,1,62.848,43.5a1.248,1.248,0,0,1-1.352-.1,1.96,1.96,0,0,1-.411-0.874,1.4,1.4,0,0,1,.011-0.707,12.505,12.505,0,0,1-1.051,1.453,1.008,1.008,0,0,1-.941.373,0.668,0.668,0,0,1-.564-0.441,3.248,3.248,0,0,1-.172-0.969A4.14,4.14,0,0,1,57.118,43.5a0.91,0.91,0,0,1-1.151-.089,1.927,1.927,0,0,1-.407-0.874,1.99,1.99,0,0,1-.1-0.58,13.23,13.23,0,0,1-.929,1.326,1.008,1.008,0,0,1-.941.373,0.672,0.672,0,0,1-.563-0.441,3.967,3.967,0,0,1-.252-0.954A4.423,4.423,0,0,1,51.541,43.5a1.249,1.249,0,0,1-1.352-.1,1.958,1.958,0,0,1-.411-0.874,1.682,1.682,0,0,1-.038-0.744c-0.172.31-.3,0.489-0.415,0.677a4.806,4.806,0,0,1-.854.984,1.052,1.052,0,0,1-.956.146,1.265,1.265,0,0,1-.621-1.235,6.826,6.826,0,0,1,.5-1.528c0.232-.557.526-1.245,0.564-1.355a0.85,0.85,0,0,0,.13-0.472,2.083,2.083,0,0,0-1.135.793,4.078,4.078,0,0,0-.728.992c-0.457,1-1.211,2.835-1.211,2.835H43.552l1.7-4.025a0.738,0.738,0,0,0,.118-0.569,2.655,2.655,0,0,0-1.752,1.67c-0.465,1.262-1.227,2.924-1.227,2.924H40.931l1.734-4.089a1.393,1.393,0,0,0,.148-0.489,2.066,2.066,0,0,0-1.189.977C41.408,40.337,41.2,40.7,41,41.068l-0.228-.091a6.4,6.4,0,0,1,1.543-2.037,1.122,1.122,0,0,1,.959-0.348,1.093,1.093,0,0,1,.568,1.232A4.691,4.691,0,0,1,44.9,38.91a1.57,1.57,0,0,1,.994-0.318,1.271,1.271,0,0,1,.538,1.419,7.98,7.98,0,0,1,.712-0.753,2.123,2.123,0,0,1,1.342-.658,1.209,1.209,0,0,1,.548,1.276,5.434,5.434,0,0,1-.5,1.659c-0.2.494-.564,1.156-0.674,1.534a0.406,0.406,0,0,0-.015.364,0.5,0.5,0,0,0,.487-0.125,3.638,3.638,0,0,0,.8-0.9A8.752,8.752,0,0,0,49.926,41l0.008,0a4.462,4.462,0,0,1,.841-1.262,3.118,3.118,0,0,1,2.507-1.212,1.053,1.053,0,0,1,.682.632l0.228-.551,1.436,0s-0.929,2.265-1.363,3.273c-0.271.624-.392,0.88-0.465,1.059s-0.218.523,0,.523a0.9,0.9,0,0,0,.594-0.333,23.141,23.141,0,0,0,1.379-2.242,4.7,4.7,0,0,1,.709-1.153,2.682,2.682,0,0,1,2.309-1.212,1.046,1.046,0,0,1,.682.632L60.783,36l1.436,0s-2.008,4.871-2.442,5.879c-0.269.624-.392,0.88-0.465,1.059s-0.217.523,0,.523a0.885,0.885,0,0,0,.591-0.333c0.1-.108.887-1.282,1.5-2.34a5.919,5.919,0,0,1,.75-1.056,2.97,2.97,0,0,1,2.431-1.212,1.05,1.05,0,0,1,.681.632l0.229-.551,1.436,0s-0.926,2.265-1.364,3.273c-0.27.624-.388,0.88-0.464,1.059s-0.217.523,0,.523a0.883,0.883,0,0,0,.549-0.333c0.594-.5,2.019-3.339,2.751-4.133a0.906,0.906,0,0,1,.9-0.408,1.09,1.09,0,0,1,.571,1.232,4.726,4.726,0,0,1,1.059-.914,1.563,1.563,0,0,1,.994-0.318,1.27,1.27,0,0,1,.534,1.419,8.536,8.536,0,0,1,.712-0.753,2.132,2.132,0,0,1,1.341-.658,1.21,1.21,0,0,1,.552,1.276,5.576,5.576,0,0,1-.5,1.659c-0.2.494-.563,1.156-0.674,1.534a0.41,0.41,0,0,0-.015.364,0.5,0.5,0,0,0,.488-0.125,3.537,3.537,0,0,0,.8-0.9A7.408,7.408,0,0,0,75.938,41l0,0.008a4,4,0,0,1,3.372-2.455,0.866,0.866,0,0,1,.742,1.115A2.592,2.592,0,0,1,77.587,41.419Zm-24.327-2.7c-0.671-.021-1.17.9-1.665,1.847s-1.184,2.5-.826,2.815,1.139-.471,1.249-0.584a6.738,6.738,0,0,0,.785-1.023c0.156-.321.156-0.332,0.427-0.944,0.141-.306.4-1.1,0.4-1.1C53.808,39.065,53.613,38.731,53.26,38.718Zm5.508,0c-0.709.042-1.207,1.158-1.5,1.847-0.545,1.292-1.162,2.569-.774,2.846,0.259,0.184.888-.385,1.078-0.6a6.672,6.672,0,0,0,.758-1.063s0.129-.3.4-0.918a7.773,7.773,0,0,0,.426-1.1C59.339,39.065,59.122,38.7,58.768,38.718Zm5.8-.005c-0.671-.024-1.17.894-1.664,1.845s-1.185,2.5-.827,2.815,1.139-.471,1.25-0.584a6.86,6.86,0,0,0,.784-1.022c0.157-.322.157-0.337,0.427-0.943,0.141-.307.4-1.1,0.4-1.1C65.118,39.052,64.923,38.723,64.57,38.713Zm14.709,0c-0.922,0-1.95,2.438-1.95,2.438a2.412,2.412,0,0,0,1.253-.273,2.053,2.053,0,0,0,1.109-1.392C79.709,39.3,79.667,38.716,79.278,38.716ZM43.015,49.437a2.1,2.1,0,0,0-2.138-1.284V44.686H66.09v7.7H59.378s-0.1-3.942-2.538-3.992-5.272,0-5.272,0v3.943s2.438,0.43,2.438-1.71h3.531V54.11h9.684a0.814,0.814,0,0,1,.883.46c0.076,0.381.3,0.95-2.088,1.733A40.493,40.493,0,0,1,59.7,57.539l-0.8-1.35,0.445,1.35s-4.746.361-5.619,0.333a1.448,1.448,0,0,1-1.489-.783,3.907,3.907,0,0,1-.663-2h0.945a4.387,4.387,0,0,0,.587,1.544,1.206,1.206,0,0,0,1.143.382c0.224,0,3.832-.239,3.832-0.239l-0.35-1.5h1.494l0.819,1.284s2.86-.262,4.426-0.618,1.84-.394,2.038-0.666c0.1-.135-0.1-0.188-0.275-0.188h-8.7v1.138h-4.1s0.1-1.377-1.866-1.28v3.254s0.1,1.5,2.191,1.5v3.28H40.878V59.7s2.138-.021,2.138-1.687V55.094H39.884L39,54.11h4.015V49.437Zm26.258,9.079V49.224s-0.4-.928-2.141-1V44.686H79.815v3.565a2.084,2.084,0,0,0-2.164.972v9.315s0.126,1.021,2.164,1.163v3.28H67.133V59.7S69.274,59.7,69.274,58.516Z" transform="translate(-39 -36)"/>
</svg>
