<svg xmlns="http://www.w3.org/2000/svg" width="18" height="18" viewBox="0 0 18 18" class="SVGHover">
  <defs>
    <style>
    </style>
  </defs>
  <path id="insta.svg" class="cls-1" d="M1055.99,743.622c2.41,0,2.69.009,3.64,0.052a5.08,5.08,0,0,1,1.68.31,2.739,2.739,0,0,1,1.03.673,2.687,2.687,0,0,1,.67,1.036,4.8,4.8,0,0,1,.31,1.671c0.05,0.948.06,1.234,0.06,3.638s-0.01,2.686-.06,3.635a4.8,4.8,0,0,1-.31,1.671,2.676,2.676,0,0,1-.67,1.035,2.728,2.728,0,0,1-1.03.673,5.02,5.02,0,0,1-1.68.311c-0.95.042-1.23,0.052-3.64,0.052s-2.69-.01-3.64-0.052a5,5,0,0,1-1.67-.311,3.019,3.019,0,0,1-1.71-1.708,5.053,5.053,0,0,1-.31-1.671c-0.04-.949-0.05-1.233-0.05-3.635s0.01-2.69.05-3.638a5.053,5.053,0,0,1,.31-1.671,2.711,2.711,0,0,1,.68-1.036,2.739,2.739,0,0,1,1.03-.673,5.064,5.064,0,0,1,1.67-.31c0.95-.043,1.24-0.052,3.64-0.052m0-1.622c-2.44,0-2.75.01-3.71,0.055a6.692,6.692,0,0,0-2.19.418,4.619,4.619,0,0,0-2.63,2.633,6.552,6.552,0,0,0-.42,2.184c-0.04.96-.05,1.266-0.05,3.712s0.01,2.749.05,3.709a6.569,6.569,0,0,0,.42,2.185,4.621,4.621,0,0,0,2.63,2.632,6.664,6.664,0,0,0,2.19.419c0.96,0.043,1.27.053,3.71,0.053s2.76-.01,3.72-0.053a6.543,6.543,0,0,0,2.18-.419,4.366,4.366,0,0,0,1.6-1.038,4.426,4.426,0,0,0,1.04-1.594,6.833,6.833,0,0,0,.42-2.185c0.04-.96.05-1.266,0.05-3.709s-0.01-2.752-.05-3.712a6.815,6.815,0,0,0-.42-2.184,4.412,4.412,0,0,0-1.04-1.6,4.366,4.366,0,0,0-1.6-1.038,6.571,6.571,0,0,0-2.18-.418c-0.96-.045-1.27-0.055-3.72-0.055h0Zm0,4.379a4.622,4.622,0,1,0,4.63,4.623A4.622,4.622,0,0,0,1055.99,746.379Zm0,7.621a3,3,0,1,1,3.01-3A3,3,0,0,1,1055.99,754Zm5.89-7.8a1.08,1.08,0,1,1-1.08-1.081A1.079,1.079,0,0,1,1061.88,746.2Z" transform="translate(-1047 -742)"/>
</svg>
