<svg xmlns="http://www.w3.org/2000/svg" width="650" height="96.469" viewBox="0 0 650 96.469">
  <defs>
      <style>
        .cls-1 {
          fill: #81d8d0;
        }
      </style>
  </defs>
  <path id="logo2.svg" class="cls-1" d="M441.722,630.547V696.94l-30.133-66.393H398.676V727h12.913V661.68L441.722,727h12.914V630.547H441.722Zm-261.546,0-15.027,37.4-15.027-37.4H136.093l22.6,55.163V727h12.914V685.71l22.6-55.163H180.176ZM366.391,727H353.477V630.547h12.914V727Zm256.126-96.453H568.709v12.86h20.447V727H602.07V643.407h20.447v-12.86ZM700,643.407v-12.86H652.649V727H700V714.14H665.563V685.2H695.7V672.343H665.563V643.407H700Zm-172.185-12.86v69.661a13.991,13.991,0,0,1-27.981,0V630.547H486.921v69.661a26.9,26.9,0,0,0,53.807,0V630.547H527.815Zm-219.538,0-15.066,40.63-15.065-40.63H265.232V727h12.914V665.529l15.065,40.63,15.067-40.633V727h12.914V630.547H308.277Zm-215.232,0L77.98,671.177l-15.066-40.63H50V727H62.914V665.529l15.066,40.63,15.067-40.633V727H105.96V630.547H93.045Z" transform="translate(-50 -630.531)"/>
</svg>
