<svg xmlns="http://www.w3.org/2000/svg" width="650" height="96.469" viewBox="0 0 650 96.469">
  <defs>
    <style>
      .cls-1 {
        fill: #fff;
      }
    </style>
  </defs>
  <path id="logo1.svg" class="cls-1" d="M366.391,595.453H353.477V499h12.914v96.453ZM441.722,499v66.393L411.589,499H398.676v96.453h12.913v-65.32l30.133,65.32h12.914V499H441.722ZM93.046,499v66.393L62.914,499H50v96.453H62.914v-65.32l30.132,65.32H105.96V499H93.046Zm529.471,0H568.709v12.86h20.447v83.593H602.07V511.86h20.447V499Zm-94.7,0v69.66a13.991,13.991,0,0,1-27.981,0V499H486.921v69.66a26.9,26.9,0,0,0,53.807,0V499H527.815Zm-347.639,0-15.027,37.4L150.122,499H136.093l22.6,55.163v41.29h12.914v-41.29L194.205,499H180.176Zm128.1,0-15.066,40.63L278.146,499H265.232v96.453h12.914V533.982l15.065,40.63,15.067-40.633v61.474h12.914V499H308.277ZM700,511.86V499H652.649v96.453H700v-12.86H665.563V553.657H695.7V540.8H665.563V511.86H700Z" transform="translate(-50 -499)"/>
</svg>
