<svg xmlns="http://www.w3.org/2000/svg" width="650" height="96.469" viewBox="0 0 650 96.469">
  <defs>
    <style>
      .cls-1 {
        fill-rule: evenodd;
      }
    </style>
  </defs>
  <path id="logo3.svg" class="cls-1" d="M441.722,271.547V337.94l-30.133-66.393H398.676V368h12.913V302.68L441.722,368h12.914V271.547H441.722Zm-261.546,0-15.027,37.4-15.027-37.4H136.093l22.6,55.163V368h12.914V326.71l22.6-55.163H180.176ZM366.391,368H353.477V271.547h12.914V368Zm256.126-96.453H568.709v12.86h20.447V368H602.07V284.407h20.447v-12.86ZM700,284.407v-12.86H652.649V368H700V355.14H665.563V326.2H695.7V313.343H665.563V284.407H700Zm-172.185-12.86v69.661a13.991,13.991,0,0,1-27.981,0V271.547H486.921v69.661a26.9,26.9,0,0,0,53.807,0V271.547H527.815Zm-219.538,0-15.066,40.63-15.065-40.63H265.232V368h12.914V306.529l15.065,40.63,15.067-40.633V368h12.914V271.547H308.277Zm-215.232,0L77.98,312.177l-15.066-40.63H50V368H62.914V306.529l15.066,40.63,15.067-40.633V368H105.96V271.547H93.045Z" transform="translate(-50 -271.531)"/>
</svg>
