<svg xmlns="http://www.w3.org/2000/svg" width="18" height="16" viewBox="0 0 18 16" class="SVGHoverW twShare">
  <defs>
    <style>
    </style>
  </defs>
  <path id="tw.svg" class="cls-1" d="M1024.51,743.3a7,7,0,0,1-2.35.981,3.529,3.529,0,0,0-2.69-1.276,3.881,3.881,0,0,0-3.7,4.034,3.974,3.974,0,0,0,.1.92,10.233,10.233,0,0,1-7.62-4.217,4.28,4.28,0,0,0-.5,2.029,4.148,4.148,0,0,0,1.65,3.358,3.5,3.5,0,0,1-1.68-.506v0.051a3.971,3.971,0,0,0,2.97,3.956,3.446,3.446,0,0,1-.98.143,3.293,3.293,0,0,1-.69-0.075,3.752,3.752,0,0,0,3.45,2.8,7.045,7.045,0,0,1-4.59,1.727,6.906,6.906,0,0,1-.88-0.057,9.79,9.79,0,0,0,5.66,1.814c6.8,0,10.51-6.149,10.51-11.481l-0.01-.523a7.861,7.861,0,0,0,1.85-2.088,6.811,6.811,0,0,1-2.12.636A4.034,4.034,0,0,0,1024.51,743.3Z" transform="translate(-1007 -743)"/>
</svg>
